<svg width="24" height="25" viewBox="0 0 24 25" fill="none" xmlns="http://www.w3.org/2000/svg">
<path d="M8.02742 20.0915C8.02742 20.1905 7.91613 20.2697 7.77581 20.2697C7.61613 20.2846 7.50484 20.2054 7.50484 20.0915C7.50484 19.9925 7.61613 19.9132 7.75645 19.9132C7.90161 19.8984 8.02742 19.9776 8.02742 20.0915ZM6.52258 19.8687C6.48871 19.9677 6.58548 20.0816 6.73065 20.1113C6.85645 20.1608 7.00161 20.1113 7.03065 20.0123C7.05968 19.9132 6.96774 19.7994 6.82258 19.7548C6.69677 19.7202 6.55645 19.7697 6.52258 19.8687ZM8.66129 19.7845C8.52097 19.8192 8.42419 19.9132 8.43871 20.0271C8.45323 20.1261 8.57903 20.1905 8.72419 20.1558C8.86452 20.1212 8.96129 20.0271 8.94677 19.9281C8.93226 19.834 8.80161 19.7697 8.66129 19.7845ZM11.8452 0.812256C5.13387 0.812256 0 6.02567 0 12.8927C0 18.3834 3.37742 23.0819 8.20161 24.7355C8.82097 24.8494 9.03871 24.4583 9.03871 24.1365C9.03871 23.8295 9.02419 22.1362 9.02419 21.0965C9.02419 21.0965 5.6371 21.8392 4.92581 19.6211C4.92581 19.6211 4.37419 18.1804 3.58065 17.8091C3.58065 17.8091 2.47258 17.0318 3.65806 17.0466C3.65806 17.0466 4.8629 17.1456 5.52581 18.324C6.58548 20.2351 8.36129 19.6855 9.05323 19.3587C9.16452 18.5666 9.47903 18.017 9.82742 17.6902C7.12258 17.3833 4.39355 16.9822 4.39355 12.2194C4.39355 10.8579 4.76129 10.1746 5.53548 9.30324C5.40968 8.98142 4.99839 7.65455 5.66129 5.9415C6.67258 5.61968 9 7.27827 9 7.27827C9.96774 7.00102 11.0081 6.85744 12.0387 6.85744C13.0694 6.85744 14.1097 7.00102 15.0774 7.27827C15.0774 7.27827 17.4048 5.61473 18.4161 5.9415C19.079 7.6595 18.6677 8.98142 18.5419 9.30324C19.3161 10.1796 19.7903 10.8628 19.7903 12.2194C19.7903 16.9971 16.9403 17.3783 14.2355 17.6902C14.6806 18.0814 15.0581 18.824 15.0581 19.9875C15.0581 21.656 15.0435 23.7206 15.0435 24.1266C15.0435 24.4484 15.2661 24.8395 15.8806 24.7256C20.7194 23.0819 24 18.3834 24 12.8927C24 6.02567 18.5565 0.812256 11.8452 0.812256ZM4.70323 17.8883C4.64032 17.9378 4.65484 18.0517 4.7371 18.1457C4.81452 18.225 4.92581 18.2596 4.98871 18.1952C5.05161 18.1457 5.0371 18.0319 4.95484 17.9378C4.87742 17.8586 4.76613 17.8239 4.70323 17.8883ZM4.18065 17.4873C4.14677 17.5516 4.19516 17.6308 4.29194 17.6803C4.36935 17.7299 4.46613 17.715 4.5 17.6457C4.53387 17.5813 4.48548 17.5021 4.38871 17.4526C4.29194 17.4229 4.21452 17.4377 4.18065 17.4873ZM5.74839 19.2498C5.67097 19.3142 5.7 19.4627 5.81129 19.5568C5.92258 19.6706 6.0629 19.6855 6.12581 19.6063C6.18871 19.5419 6.15968 19.3934 6.0629 19.2993C5.95645 19.1854 5.81129 19.1706 5.74839 19.2498ZM5.19677 18.522C5.11935 18.5715 5.11935 18.7002 5.19677 18.8141C5.27419 18.928 5.40484 18.9775 5.46774 18.928C5.54516 18.8636 5.54516 18.7349 5.46774 18.621C5.4 18.5072 5.27419 18.4577 5.19677 18.522Z" fill="black"/>
</svg>
