<svg width="24" height="25" viewBox="0 0 24 25" fill="none" xmlns="http://www.w3.org/2000/svg">
<path d="M22.2857 0.812256H1.70893C0.766071 0.812256 0 1.58721 0 2.53854V23.0294C0 23.9807 0.766071 24.7557 1.70893 24.7557H22.2857C23.2286 24.7557 24 23.9807 24 23.0294V2.53854C24 1.58721 23.2286 0.812256 22.2857 0.812256ZM7.25357 21.3352H3.69643V9.90863H7.25893V21.3352H7.25357ZM5.475 8.34803C4.33393 8.34803 3.4125 7.42343 3.4125 6.29039C3.4125 5.15735 4.33393 4.23275 5.475 4.23275C6.61071 4.23275 7.5375 5.15735 7.5375 6.29039C7.5375 7.42877 6.61607 8.34803 5.475 8.34803ZM20.5875 21.3352H17.0304V15.7769C17.0304 14.4515 17.0036 12.7466 15.1821 12.7466C13.3286 12.7466 13.0446 14.1896 13.0446 15.6807V21.3352H9.4875V9.90863H12.9V11.4692H12.9482C13.425 10.5713 14.5875 9.62537 16.3179 9.62537C19.9179 9.62537 20.5875 11.993 20.5875 15.0714V21.3352Z" fill="black"/>
</svg>
