<svg width="24" height="25" viewBox="0 0 24 25" fill="none" xmlns="http://www.w3.org/2000/svg">
<path d="M3.42857 0.812256C1.5375 0.812256 0 2.34613 0 4.23275V21.3352C0 23.2218 1.5375 24.7557 3.42857 24.7557H20.5714C22.4625 24.7557 24 23.2218 24 21.3352V4.23275C24 2.34613 22.4625 0.812256 20.5714 0.812256H3.42857ZM19.3446 5.30165L13.7839 11.6403L20.325 20.2663H15.2036L11.1964 15.034L6.60536 20.2663H4.06071L10.0071 13.4841L3.73393 5.30165H8.98393L12.6107 10.085L16.8 5.30165H19.3446ZM17.3196 18.7485L8.21786 6.73933H6.70179L15.9054 18.7485H17.3143H17.3196Z" fill="black"/>
</svg>
